<?xml version="1.0" standalone="no"?><!DOCTYPE svg PUBLIC "-//W3C//DTD SVG 1.1//EN" "http://www.w3.org/Graphics/SVG/1.1/DTD/svg11.dtd"><svg width="16" height="16" viewBox="0 0 16 16" version="1.1" xmlns="http://www.w3.org/2000/svg" xmlns:xlink="http://www.w3.org/1999/xlink"><defs><style type="text/css"><![CDATA[
@font-face { font-family: ifont; src: url("//at.alicdn.com/t/font_1442373896_4754455.eot?#iefix") format("embedded-opentype"), url("//at.alicdn.com/t/font_1442373896_4754455.woff") format("woff"), url("//at.alicdn.com/t/font_1442373896_4754455.ttf") format("truetype"), url("//at.alicdn.com/t/font_1442373896_4754455.svg#ifont") format("svg"); }

]]></style></defs><g class="transform-group"><g transform="scale(0.015625, 0.015625)"><path d="M761.133 140.771l-357.483 357.479 362.135 362.177c11.836 12.27 19.131 28.949 19.131 47.349 0 37.685-30.548 68.229-68.231 68.229-18.395 0-35.078-7.296-47.351-19.131l-0.018 0.022-409.357-409.397c-12.864-12.409-20.878-29.812-20.878-49.098 0-0.05 0.004-0.1 0.004-0.15 0-0.052-0.004-0.102-0.004-0.153 0-19.286 8.015-36.689 20.878-49.098l-0.018-0.022 409.549-409.197c12.257-11.751 28.878-18.983 47.197-18.983 37.683 0 68.231 30.546 68.231 68.229 0 20.695-9.231 39.232-23.785 51.745z" fill="#272636"></path></g></g></svg>